# xmcd
#
# Track frame offsets:
#	150
#	16655
#	33194
#	51846
#	69258
#	85501
#	102967
#	123482
#	141542
#	155782
#	171780
#	189719
#	212380
#	228481
#	242364
#	260007
#	277882
#
# Disc length: 4079 seconds
#
# Revision: 1
# Processed by: cddbd v1.4PL0 Copyright (c) Steve Scherf et al.
# Submitted via: audiograbber 1.80
#
DISCID=e10fed11
DTITLE=Christina Aguilera - Singles Collection 2000
DYEAR=1900
DGENRE=
TTITLE0=Don´t make me love you (´Till I´m ready)
TTITLE1=What a girl wants (Fiesta Mix)
TTITLE2=We´re a miracle
TTITLE3=Don´t make me love you (Single Mix)
TTITLE4=Genie in a bottle
TTITLE5=What a girl wants
TTITLE6=I turn to you
TTITLE7=So emotional
TTITLE8=Come on over
TTITLE9=Reflection
TTITLE10=Love for all seasons
TTITLE11=Somebody´s somebody
TTITLE12=When you put your hands on me
TTITLE13=Blessed
TTITLE14=Love will find a way
TTITLE15=Obvious
TTITLE16=What a girl wants
EXTD=
EXTT0=
EXTT1=
EXTT2=
EXTT3=
EXTT4=
EXTT5=
EXTT6=
EXTT7=
EXTT8=
EXTT9=
EXTT10=
EXTT11=
EXTT12=
EXTT13=
EXTT14=
EXTT15=
EXTT16=
PLAYORDER=
